<svg xmlns="http://www.w3.org/2000/svg" version="1.1" xmlns:xlink="http://www.w3.org/1999/xlink" xmlns:svgjs="http://svgjs.com/svgjs" width="512px" height="512px"><svg version="1.1" id="SvgjsSvg1000" xmlns="http://www.w3.org/2000/svg" xmlns:xlink="http://www.w3.org/1999/xlink" x="0px" y="0px" width="512px" height="512px" viewBox="0 0 512 512" style="width: 512px; height: 512px; opacity: 1;" xml:space="preserve">
<style type="text/css">

	.st0{fill:#4B4B4B;}

</style>
<g>
	<path class="st0" d="M383.297,0H128.688C97.375,0,72,25.375,72,56.688v398.625C72,486.625,97.375,512,128.688,512h254.609
		C414.609,512,440,486.625,440,455.313V56.688C440,25.375,414.609,0,383.297,0z M260,483.984c-8.094,0-14.672-6.563-14.672-14.672
		c0-8.094,6.578-14.656,14.672-14.656s14.672,6.563,14.672,14.656C274.672,477.422,268.094,483.984,260,483.984z M392,424H120V64
		h272V424z" style="fill: rgb(75, 75, 75);"></path>
</g>
</svg><style>@media (prefers-color-scheme: light) { :root { filter: none; } }
@media (prefers-color-scheme: dark) { :root { filter: invert(100%); } }
</style></svg>