<?xml version="1.0" standalone="no"?>
<!DOCTYPE svg PUBLIC "-//W3C//DTD SVG 20010904//EN"
 "http://www.w3.org/TR/2001/REC-SVG-20010904/DTD/svg10.dtd">
<svg version="1.0" xmlns="http://www.w3.org/2000/svg"
 width="700.000000pt" height="700.000000pt" viewBox="0 0 700.000000 700.000000"
 preserveAspectRatio="xMidYMid meet">
<metadata>
Created by potrace 1.14, written by Peter Selinger 2001-2017
</metadata>
<g transform="translate(0.000000,700.000000) scale(0.100000,-0.100000)"
fill="#000000" stroke="none">
<path d="M1610 6986 c-333 -74 -573 -328 -618 -656 -3 -25 -6 -1307 -6 -2850
l0 -2805 22 -84 c62 -239 205 -413 425 -516 160 -76 -16 -70 2067 -70 1799 0
1867 1 1935 19 38 10 77 22 85 26 149 74 190 101 268 178 102 103 166 215 204
363 l22 84 0 2800 c0 1540 -3 2825 -7 2855 -41 325 -290 588 -617 654 -66 14
-305 15 -1900 15 -1397 -1 -1838 -4 -1880 -13z m3747 -3321 l2 -2461 -1857 1
-1857 0 -3 2460 -2 2460 1857 0 1858 0 2 -2460z m-1710 -2907 c119 -55 142
-233 41 -324 -77 -72 -220 -60 -286 22 -95 119 -35 289 114 323 46 10 74 6
131 -21z"/>
</g>
</svg>
